<svg xmlns="http://www.w3.org/2000/svg" xmlns:xlink="http://www.w3.org/1999/xlink" width="300" zoomAndPan="magnify" viewBox="0 0 224.87999 149.999998" height="200" preserveAspectRatio="xMidYMid meet" version="1.0"><defs><g/><clipPath id="f4935111f7"><path d="M 22.890625 40.851562 L 76 40.851562 L 76 109.0625 L 22.890625 109.0625 Z M 22.890625 40.851562 " clip-rule="nonzero"/></clipPath></defs><g clip-path="url(#f4935111f7)"><path fill="#ffffff" d="M 70.148438 67.242188 L 70.148438 61.640625 C 70.148438 50.179688 60.820312 40.851562 49.359375 40.851562 C 37.898438 40.851562 28.566406 50.175781 28.566406 61.640625 L 28.566406 67.242188 C 25.425781 67.328125 22.90625 69.886719 22.90625 73.042969 L 22.90625 103.328125 C 22.90625 103.710938 22.941406 104.089844 23.015625 104.464844 C 23.089844 104.839844 23.199219 105.203125 23.347656 105.554688 C 23.492188 105.90625 23.671875 106.242188 23.882812 106.558594 C 24.097656 106.878906 24.335938 107.171875 24.609375 107.441406 C 24.878906 107.710938 25.171875 107.953125 25.488281 108.164062 C 25.808594 108.378906 26.140625 108.558594 26.496094 108.703125 C 26.847656 108.847656 27.210938 108.960938 27.585938 109.035156 C 27.960938 109.109375 28.339844 109.144531 28.722656 109.144531 L 69.992188 109.144531 C 70.375 109.144531 70.75 109.109375 71.125 109.035156 C 71.5 108.960938 71.863281 108.851562 72.21875 108.703125 C 72.570312 108.558594 72.90625 108.378906 73.222656 108.164062 C 73.539062 107.953125 73.835938 107.710938 74.105469 107.441406 C 74.375 107.171875 74.617188 106.878906 74.828125 106.5625 C 75.039062 106.242188 75.21875 105.90625 75.367188 105.554688 C 75.511719 105.203125 75.621094 104.839844 75.695312 104.464844 C 75.773438 104.089844 75.808594 103.710938 75.808594 103.328125 L 75.808594 73.042969 C 75.808594 69.882812 73.285156 67.328125 70.148438 67.242188 Z M 54.113281 84 C 54.089844 84.183594 53.988281 84.59375 53.980469 84.625 C 53.625 85.855469 52.773438 86.867188 51.671875 87.480469 L 53.539062 95.441406 C 53.59375 95.609375 53.609375 95.777344 53.582031 95.953125 C 53.558594 96.125 53.496094 96.285156 53.394531 96.425781 C 53.292969 96.570312 53.164062 96.683594 53.007812 96.765625 C 52.855469 96.847656 52.6875 96.890625 52.515625 96.894531 L 46.324219 96.894531 C 46.152344 96.890625 45.984375 96.847656 45.832031 96.765625 C 45.675781 96.683594 45.546875 96.570312 45.445312 96.425781 C 45.347656 96.285156 45.28125 96.125 45.257812 95.953125 C 45.230469 95.777344 45.246094 95.609375 45.300781 95.441406 L 47.039062 87.480469 C 45.9375 86.867188 45.089844 85.855469 44.734375 84.625 C 44.726562 84.59375 44.625 84.183594 44.597656 84 C 44.566406 83.777344 44.546875 83.554688 44.546875 83.332031 C 44.546875 83.015625 44.578125 82.703125 44.640625 82.394531 C 44.703125 82.082031 44.792969 81.78125 44.914062 81.492188 C 45.035156 81.199219 45.183594 80.921875 45.359375 80.660156 C 45.535156 80.394531 45.734375 80.152344 45.957031 79.929688 C 46.179688 79.707031 46.421875 79.507812 46.683594 79.332031 C 46.949219 79.15625 47.222656 79.007812 47.515625 78.886719 C 47.808594 78.765625 48.109375 78.675781 48.417969 78.613281 C 48.726562 78.550781 49.039062 78.519531 49.355469 78.519531 C 49.671875 78.519531 49.984375 78.550781 50.292969 78.613281 C 50.605469 78.675781 50.90625 78.765625 51.195312 78.886719 C 51.488281 79.007812 51.765625 79.15625 52.027344 79.332031 C 52.289062 79.507812 52.535156 79.707031 52.757812 79.929688 C 52.980469 80.152344 53.179688 80.394531 53.355469 80.660156 C 53.53125 80.921875 53.679688 81.199219 53.800781 81.492188 C 53.917969 81.78125 54.011719 82.082031 54.074219 82.394531 C 54.132812 82.703125 54.164062 83.015625 54.164062 83.332031 C 54.164062 83.554688 54.148438 83.777344 54.113281 84 Z M 63.046875 67.226562 L 35.664062 67.226562 L 35.664062 61.640625 C 35.664062 54.089844 41.804688 47.945312 49.359375 47.945312 C 56.910156 47.945312 63.046875 54.089844 63.046875 61.640625 Z M 63.046875 67.226562 " fill-opacity="1" fill-rule="nonzero"/></g><g fill="#ffffff" fill-opacity="1"><g transform="translate(88.987242, 104.791679)"><g><path d="M 36.109375 -44.71875 L 36.109375 0 L 1.71875 0 L 1.71875 -44.71875 L 15.484375 -44.71875 L 15.484375 -10.3125 L 22.359375 -10.3125 L 22.359375 -44.71875 Z M 36.109375 -44.71875 "/></g></g></g><g fill="#ffffff" fill-opacity="1"><g transform="translate(126.820801, 104.791679)"><g><path d="M 36.109375 3.4375 L 22.359375 3.4375 L 22.359375 0 L 1.71875 0 L 1.71875 -44.71875 L 36.109375 -44.71875 L 36.109375 -34.390625 L 15.484375 -34.390625 L 15.484375 -10.3125 L 22.359375 -10.3125 L 22.359375 -24.078125 L 36.109375 -27.515625 Z M 36.109375 3.4375 "/></g></g></g><g fill="#ffffff" fill-opacity="1"><g transform="translate(164.65436, 104.791679)"><g><path d="M 36.109375 -44.71875 L 36.109375 0 L 1.71875 0 L 1.71875 -44.71875 L 15.484375 -44.71875 L 15.484375 -10.3125 L 22.359375 -10.3125 L 22.359375 -44.71875 Z M 36.109375 -44.71875 "/></g></g></g></svg>